<svg viewBox="0 0 600 450" xmlns="http://www.w3.org/2000/svg">
  <defs>
    <linearGradient id="bg" x1="0" y1="0" x2="1" y2="1">
      <stop offset="0%" stop-color="#ffffff"/>
      <stop offset="100%" stop-color="#dfe7db"/>
    </linearGradient>
    <linearGradient id="egg" x1="0" y1="0" x2="1" y2="1">
      <stop offset="0%" stop-color="#fffdf6"/>
      <stop offset="100%" stop-color="#d7d1c4"/>
    </linearGradient>
  </defs>
  <rect width="600" height="450" fill="url(#bg)"/>
  <rect x="92" y="128" width="416" height="234" rx="34" fill="#c8b58d"/>
  <rect x="116" y="151" width="368" height="188" rx="28" fill="#e0cda4"/>
  <ellipse cx="196" cy="210" rx="47" ry="62" fill="url(#egg)" transform="rotate(-11 196 210)"/>
  <ellipse cx="286" cy="207" rx="49" ry="64" fill="url(#egg)" transform="rotate(9 286 207)"/>
  <ellipse cx="376" cy="211" rx="47" ry="62" fill="url(#egg)" transform="rotate(-6 376 211)"/>
  <ellipse cx="238" cy="291" rx="49" ry="64" fill="url(#egg)" transform="rotate(13 238 291)"/>
  <ellipse cx="332" cy="292" rx="49" ry="64" fill="url(#egg)" transform="rotate(-13 332 292)"/>
  <ellipse cx="423" cy="289" rx="47" ry="62" fill="url(#egg)" transform="rotate(9 423 289)"/>
</svg>
